UNKNOWN						-1.55	-0.95	1.25	0.95
version=1									
nRows=101									
nColumns=4									
inDegrees=no									
endheader									
time	time	ankle_angle_r_moment	ankle_angle_l_moment						
0	0.95	0.79400715	0.65302214						
1	0.9625	0.72795787	0.46652477						
2	0.975	0.66954547	0.3067496						
3	0.9875	0.62222307	0.20331456						
4	1	0.59044781	0.17627782						
5	1.0125	0.58000098	0.23085719						
6	1.025	0.59786214	0.35627822						
7	1.0375	0.65133926	0.52895576						
8	1.05	0.74476032	0.71881502						
9	1.0625	0.87547703	0.89631182						
10	1.075	1.03658749	1.03747495						
11	1.0875	1.21206158	1.13218186						
12	1.1	1.40345187	1.1786088						
13	1.1125	1.59316279	1.18199413						
14	1.125	1.76008346	1.15136362						
15	1.1375	1.89096374	1.09683275						
16	1.15	1.97307282	1.02791889						
17	1.1625	1.99372866	0.9526928						
18	1.175	1.95375897	0.87743611						
19	1.1875	1.86710755	0.8065901						
20	1.2	1.74409987	0.74290082						
21	1.2125	1.59655833	0.68772335						
22	1.225	1.43686602	0.64143442						
23	1.2375	1.27719289	0.60382142						
24	1.25	1.1287449	0.57432617						
25	1.2625	1.00106331	0.55215418						
26	1.275	0.90145601	0.5363114						
27	1.2875	0.83471646	0.5253739						
28	1.3	0.80294906	0.51896032						
29	1.3125	0.8056262	0.51605573						
30	1.325	0.839647	0.51574735						
31	1.3375	0.89951231	0.51731114						
32	1.35	0.97758277	0.52030705						
33	1.3625	1.06435986	0.52464716						
34	1.375	1.14877612	0.53058132						
35	1.3875	1.21854803	0.53857272						
36	1.4	1.25187124	0.54909451						
37	1.4125	1.23950899	0.56239683						
38	1.425	1.17798458	0.57828153						
39	1.4375	1.06363815	0.59593278						
40	1.45	0.89438377	0.6138498						
41	1.4625	0.69993847	0.62990041						
42	1.475	0.45912833	0.64152294						
43	1.4875	0.18597671	0.64615033						
44	1.5	-0.08797091	0.64192289						
45	1.5125	-0.31226685	0.62862979						
46	1.525	-0.45564592	0.60866604						
47	1.5375	-0.49927182	0.58772708						
48	1.55	-0.4368766	0.57497197						
49	1.5625	-0.27602756	0.58241783						
50	1.575	-0.03719461	0.62340389						
51	1.5875	0.24928933	0.7099723						
52	1.6	0.54804194	0.84468833						
53	1.6125	0.82452049	1.02482697						
54	1.625	1.0496939	1.23537343						
55	1.6375	1.20467955	1.45879215						
56	1.65	1.28970298	1.69364366						
57	1.6625	1.31256315	1.90629277						
58	1.675	1.28697242	2.07912277						
59	1.6875	1.22843936	2.19951687						
60	1.7	1.1513027	2.26027894						
61	1.7125	1.06702739	2.25487028						
62	1.725	0.98353562	2.19403041						
63	1.7375	0.90539071	2.08985558						
64	1.75	0.83455754	1.95172248						
65	1.7625	0.77136413	1.78984049						
66	1.775	0.71537743	1.61563725						
67	1.7875	0.66601965	1.44178075						
68	1.8	0.62286593	1.28148257						
69	1.8125	0.58568653	1.14704664						
70	1.825	0.55390734	1.04794021						
71	1.8375	0.52709264	0.98886759						
72	1.85	0.50625102	0.96839309						
73	1.8625	0.49086531	0.97862467						
74	1.875	0.48046089	1.00630354						
75	1.8875	0.4747932	1.03286507						
76	1.9	0.47384867	1.03594974						
77	1.9125	0.47770549	1.01181088						
78	1.925	0.48636464	0.95634594						
79	1.9375	0.49962277	0.86921475						
80	1.95	0.5170028	0.75160629						
81	1.9625	0.53773352	0.62651993						
82	1.975	0.56076207	0.46912544						
83	1.9875	0.58478738	0.2782382						
84	2	0.60830832	0.06479375						
85	2.0125	0.62968919	-0.14909181						
86	2.025	0.64727273	-0.33711321						
87	2.0375	0.65959335	-0.47922621						
88	2.05	0.66572261	-0.55781125						
89	2.0625	0.6657209	-0.56145996						
90	2.075	0.66109089	-0.48754164						
91	2.0875	0.65504526	-0.3431017						
92	2.1	0.65235442	-0.14413342						
93	2.1125	0.65856826	0.08667461						
94	2.125	0.67852597	0.32357768						
95	2.1375	0.71435688	0.54228469						
96	2.15	0.7615615	0.7242723						
97	2.1625	0.81035966	0.85967922						
98	2.175	0.84875273	0.94494652						
99	2.1875	0.86451528	0.98982325						
100	2.2	0.85454912	1.00822473						
